{"asset":{"version":"2.0","generator":"THREE.GLTFExporter"},"scenes":[{"name":"AuxScene","nodes":[0]}],"scene":0,"nodes":[{"mesh":0}],"bufferViews":[{"buffer":0,"byteOffset":0,"byteLength":9252,"target":34962,"byteStride":12},{"buffer":0,"byteOffset":9252,"byteLength":9252,"target":34962,"byteStride":12}],"buffers":[{"byteLength":18504,"uri":"data:application/octet-stream;base64,"}],"accessors":[{"bufferView":0,"componentType":5126,"count":771,"max":[32.22686004638672,51.604251861572266,32.658294677734375],"min":[-38.373138427734375,-34.39574432373047,-40.74170684814453],"type":"VEC3"},{"bufferView":1,"componentType":5126,"count":771,"max":[0.9453099966049194,1,0.507086455821991],"min":[-0.44720643758773804,0.3257794976234436,-0.3713906705379486],"type":"VEC3"}],"materials":[{"pbrMetallicRoughness":{"baseColorFactor":[0.5019607843137255,0.5019607843137255,0.5019607843137255,1],"metallicFactor":0,"roughnessFactor":1}}],"meshes":[{"primitives":[{"mode":4,"attributes":{"POSITION":0,"NORMAL":1},"material":0}]}]}